<svg id="Calque_1" data-name="Calque 1" xmlns="http://www.w3.org/2000/svg" viewBox="0 0 784 962"><defs><style>.cls-1{fill:#0fb743;}.cls-2{fill:#009432;}.cls-3{fill:#e85264;}.cls-4{fill:#ea2027;}.cls-5,.cls-6{fill:none;stroke-miterlimit:10;stroke-width:8px;}.cls-5{stroke:#009432;}.cls-6{stroke:#ea2027;}</style></defs><title>logo</title><rect class="cls-1" x="295" y="56" width="186" height="649"/><path class="cls-2" d="M587,79V720H409V79H587m8-8H401V728H595V71Z" transform="translate(-110 -19)"/><rect class="cls-3" x="594.5" y="251.5" width="185" height="648"/><path class="cls-4" d="M885,275V914H709V275H885m9-9H700V923H894V266Z" transform="translate(-110 -19)"/><rect class="cls-1" x="4" y="196" width="186" height="649"/><path class="cls-2" d="M296,219V860H118V219H296m8-8H110V868H304V211Z" transform="translate(-110 -19)"/><line class="cls-5" x1="97" y1="63" x2="96" y2="197"/><line class="cls-5" x1="90" y1="847" x2="90" y2="903"/><line class="cls-5" x1="390" y1="709" x2="389" y2="843"/><line class="cls-5" x1="388" x2="388" y2="56"/><line class="cls-6" x1="687" y1="163" x2="687" y2="247"/><line class="cls-6" x1="687" y1="904" x2="687" y2="962"/></svg>